<svg width="56" height="52" viewBox="0 0 56 52" fill="none" xmlns="http://www.w3.org/2000/svg">
<path d="M34.5337 9.99477L50.1693 34.1769C52.4163 37.6501 51.3127 42.2196 47.703 44.3819C46.4915 45.1104 45.0793 45.4986 43.636 45.4999H12.3623C8.11333 45.4999 4.66699 42.1849 4.66699 38.0921C4.66699 36.7076 5.07066 35.3534 5.82899 34.1769L21.467 9.99477C23.7117 6.5216 28.4577 5.45777 32.0673 7.6201C33.066 8.2181 33.9107 9.0306 34.5337 9.99477V9.99477ZM28.0003 36.8333C28.6192 36.8333 29.2127 36.605 29.6502 36.1987C30.0878 35.7923 30.3337 35.2412 30.3337 34.6666C30.3337 34.092 30.0878 33.5409 29.6502 33.1345C29.2127 32.7282 28.6192 32.4999 28.0003 32.4999C27.3815 32.4999 26.788 32.7282 26.3504 33.1345C25.9128 33.5409 25.667 34.092 25.667 34.6666C25.667 35.2412 25.9128 35.7923 26.3504 36.1987C26.788 36.605 27.3815 36.8333 28.0003 36.8333V36.8333ZM28.0003 17.3333C27.3815 17.3333 26.788 17.5615 26.3504 17.9679C25.9128 18.3742 25.667 18.9253 25.667 19.4999V28.1666C25.667 28.7412 25.9128 29.2923 26.3504 29.6987C26.788 30.105 27.3815 30.3333 28.0003 30.3333C28.6192 30.3333 29.2127 30.105 29.6502 29.6987C30.0878 29.2923 30.3337 28.7412 30.3337 28.1666V19.4999C30.3337 18.9253 30.0878 18.3742 29.6502 17.9679C29.2127 17.5615 28.6192 17.3333 28.0003 17.3333Z" fill="#F53434"/>
</svg>
