<svg width="22" height="26" viewBox="0 0 22 26" fill="none" xmlns="http://www.w3.org/2000/svg">
<path d="M10.9999 0.142883C12.0995 0.142882 13.157 0.565492 13.9537 1.3233C14.7504 2.08111 15.2253 3.11614 15.2803 4.21431L15.2856 4.4286H20.6428C20.9159 4.4289 21.1785 4.53347 21.3771 4.72093C21.5757 4.9084 21.6952 5.16462 21.7112 5.43723C21.7272 5.70985 21.6385 5.97829 21.4632 6.1877C21.2879 6.39712 21.0393 6.5317 20.7681 6.56395L20.6428 6.57145H19.7331L18.4689 22.164C18.3873 23.1701 17.93 24.1087 17.1879 24.793C16.4458 25.4773 15.4733 25.8572 14.4639 25.8572H7.536C6.52655 25.8572 5.55406 25.4773 4.81197 24.793C4.06988 24.1087 3.61257 23.1701 3.531 22.164L2.26564 6.57145H1.35707C1.09464 6.57142 0.841355 6.47507 0.645246 6.30069C0.449137 6.1263 0.323849 5.88601 0.293144 5.62538L0.285645 5.50003C0.285679 5.2376 0.382026 4.98431 0.556411 4.7882C0.730796 4.59209 0.97109 4.4668 1.23172 4.4361L1.35707 4.4286H6.71422C6.71422 3.29196 7.16574 2.20187 7.96947 1.39814C8.7732 0.594413 9.86329 0.142883 10.9999 0.142883V0.142883ZM8.58922 10.0536C8.39503 10.0536 8.20742 10.1239 8.06108 10.2516C7.91473 10.3792 7.81955 10.5555 7.79314 10.7479L7.78564 10.8572V19.4286L7.79314 19.5379C7.81961 19.7302 7.91481 19.9065 8.06115 20.0341C8.20749 20.1616 8.39507 20.2319 8.58922 20.2319C8.78336 20.2319 8.97094 20.1616 9.11728 20.0341C9.26362 19.9065 9.35882 19.7302 9.38529 19.5379L9.39279 19.4286V10.8572L9.38529 10.7479C9.35888 10.5555 9.2637 10.3792 9.11736 10.2516C8.97101 10.1239 8.7834 10.0536 8.58922 10.0536ZM13.4106 10.0536C13.2165 10.0536 13.0288 10.1239 12.8825 10.2516C12.7362 10.3792 12.641 10.5555 12.6146 10.7479L12.6071 10.8572V19.4286L12.6146 19.5379C12.641 19.7302 12.7362 19.9065 12.8826 20.0341C13.0289 20.1616 13.2165 20.2319 13.4106 20.2319C13.6048 20.2319 13.7924 20.1616 13.9387 20.0341C14.0851 19.9065 14.1803 19.7302 14.2067 19.5379L14.2142 19.4286V10.8572L14.2067 10.7479C14.1803 10.5555 14.0851 10.3792 13.9388 10.2516C13.7924 10.1239 13.6048 10.0536 13.4106 10.0536ZM10.9999 2.28574C10.4593 2.28557 9.93861 2.48975 9.5422 2.85734C9.14579 3.22494 8.90298 3.72879 8.86243 4.26788L8.85707 4.4286H13.1428L13.1374 4.26788C13.0969 3.72879 12.8541 3.22494 12.4577 2.85734C12.0613 2.48975 11.5405 2.28557 10.9999 2.28574V2.28574Z" fill="#DC3545"/>
</svg>
