<svg width="30" height="30" viewBox="0 0 30 30" fill="none" xmlns="http://www.w3.org/2000/svg">
<g clip-path="url(#clip0_389:2)">
<path d="M29.1739 8.32657L26.4727 11.0277C26.1973 11.3031 25.752 11.3031 25.4766 11.0277L18.9727 4.52383C18.6973 4.24844 18.6973 3.80313 18.9727 3.52774L21.6739 0.826568C22.7696 -0.269134 24.5509 -0.269134 25.6524 0.826568L29.1739 4.34805C30.2755 5.44376 30.2755 7.22501 29.1739 8.32657ZM16.6524 5.84805L1.2657 21.2348L0.0235139 28.3539C-0.146408 29.3148 0.691483 30.1469 1.65242 29.9828L8.77156 28.7348L24.1583 13.3481C24.4337 13.0727 24.4337 12.6273 24.1583 12.352L17.6544 5.84805C17.3731 5.57266 16.9278 5.57266 16.6524 5.84805V5.84805ZM7.27156 19.9164C6.94929 19.5941 6.94929 19.0785 7.27156 18.7563L16.295 9.73282C16.6173 9.41055 17.1329 9.41055 17.4552 9.73282C17.7774 10.0551 17.7774 10.5707 17.4552 10.893L8.43172 19.9164C8.10945 20.2387 7.59382 20.2387 7.27156 19.9164V19.9164ZM5.15633 24.8441H7.96882V26.9711L4.18953 27.6332L2.36726 25.8109L3.02937 22.0316H5.15633V24.8441Z" fill="#0D6EFD"/>
</g>
<defs>
<clipPath id="clip0_389:2">
<rect width="30" height="30" fill="white"/>
</clipPath>
</defs>
</svg>
